<svg xmlns="http://www.w3.org/2000/svg" viewBox="0 0 320 240" fill="none" stroke-linecap="round" stroke-linejoin="round">
<rect x="92" y="74" width="136" height="122" rx="3" fill="#F6F1E8" stroke="#2A2025" stroke-width="2.2"/>
<rect x="92" y="74" width="136" height="10" fill="#BD9550" stroke="#2A2025" stroke-width="1.4"/>
<rect x="150" y="40" width="20" height="44" rx="3" fill="#7B1E2B" stroke="#5E1622" stroke-width="2.2"/>
<rect x="154" y="46" width="12" height="32" rx="2" fill="none" stroke="#D9B879" stroke-width="1.6"/>
<path d="M84 118 L236 118 L222 150 L98 150 Z" fill="#7B1E2B" stroke="#5E1622" stroke-width="2.2"/>
<circle cx="108.0" cy="150" r="3.4" fill="#BD9550" stroke="#5E1622" stroke-width="1"/><path d="M108.0 145 q0 -5 0 -7" stroke="#D9B879" stroke-width="1.4" opacity="0.6"/><circle cx="125.3" cy="150" r="3.4" fill="#BD9550" stroke="#5E1622" stroke-width="1"/><path d="M125.3 145 q0 -5 0 -7" stroke="#D9B879" stroke-width="1.4" opacity="0.6"/><circle cx="142.7" cy="150" r="3.4" fill="#BD9550" stroke="#5E1622" stroke-width="1"/><path d="M142.7 145 q0 -5 0 -7" stroke="#D9B879" stroke-width="1.4" opacity="0.6"/><circle cx="160.0" cy="150" r="3.4" fill="#BD9550" stroke="#5E1622" stroke-width="1"/><path d="M160.0 145 q0 -5 0 -7" stroke="#D9B879" stroke-width="1.4" opacity="0.6"/><circle cx="177.3" cy="150" r="3.4" fill="#BD9550" stroke="#5E1622" stroke-width="1"/><path d="M177.3 145 q0 -5 0 -7" stroke="#D9B879" stroke-width="1.4" opacity="0.6"/><circle cx="194.7" cy="150" r="3.4" fill="#BD9550" stroke="#5E1622" stroke-width="1"/><path d="M194.7 145 q0 -5 0 -7" stroke="#D9B879" stroke-width="1.4" opacity="0.6"/><circle cx="212.0" cy="150" r="3.4" fill="#BD9550" stroke="#5E1622" stroke-width="1"/><path d="M212.0 145 q0 -5 0 -7" stroke="#D9B879" stroke-width="1.4" opacity="0.6"/>
<rect x="104" y="92" width="30" height="20" rx="2" fill="#FCFAF4" stroke="#6B5D62" stroke-width="1.6"/>
<rect x="186" y="92" width="30" height="20" rx="2" fill="#FCFAF4" stroke="#6B5D62" stroke-width="1.6"/>
<path d="M142 196 L142 168 A18 18 0 0 1 178 168 L178 196 Z" fill="#241B21" stroke="#2A2025" stroke-width="2.2"/>
<path d="M142 168 A18 18 0 0 1 178 168" fill="none" stroke="#BD9550" stroke-width="2"/>
<line x1="160" y1="168" x2="160" y2="196" stroke="#BD9550" stroke-width="1.6" opacity="0.7"/>
<line x1="70" y1="196" x2="250" y2="196" stroke="#2A2025" stroke-width="2.2"/>
</svg>