<svg xmlns="http://www.w3.org/2000/svg" viewBox="0 0 320 240" fill="none" stroke-linecap="round" stroke-linejoin="round">
<path d="M150 58 L106 178 A54 13 0 0 0 214 178 L170 58 Z" fill="#D9B879" opacity="0.12"/><ellipse cx="160" cy="178" rx="54" ry="13" fill="#D9B879" opacity="0.18"/>
<path d="M58.0 196 L58.0 80 A102.0 102.0 0 0 1 262.0 80 L262.0 196" stroke="#2A2025" stroke-width="3.6" fill="none" opacity="0.9"/>
<path d="M65.0 44 L65.0 44 Q84.0 92 103.0 44 L103.0 44 Q122.0 92 141.0 44 L141.0 44 Q160.0 92 179.0 44 L179.0 44 Q198.0 92 217.0 44 L217.0 44 Q236.0 92 255.0 44 L255.0 44 Z" fill="#7B1E2B" stroke="#5E1622" stroke-width="2.2"/>
<path d="M58 64 L58 190 C72 196 104 196 112 186 C106 154 128 136 108 128 C130 98 60 86 80 64 Z" fill="#7B1E2B" stroke="#5E1622" stroke-width="2.2"/><path d="M74.2 82 C79.2 128 71.2 138 76.2 170" stroke="#5E1622" stroke-width="1.4" opacity="0.55"/><path d="M90.4 82 C95.4 128 87.4 138 92.4 170" stroke="#5E1622" stroke-width="1.4" opacity="0.55"/><rect x="103" y="121" width="14" height="14" rx="6" fill="#BD9550" stroke="#5E1622" stroke-width="1.2"/>
<path d="M262 64 L262 190 C248 196 216 196 208 186 C214 154 192 136 212 128 C190 98 260 86 240 64 Z" fill="#7B1E2B" stroke="#5E1622" stroke-width="2.2"/><path d="M245.8 82 C240.8 128 248.8 138 243.8 170" stroke="#5E1622" stroke-width="1.4" opacity="0.55"/><path d="M229.6 82 C224.6 128 232.6 138 227.6 170" stroke="#5E1622" stroke-width="1.4" opacity="0.55"/><rect x="205" y="121" width="14" height="14" rx="6" fill="#BD9550" stroke="#5E1622" stroke-width="1.2"/>
<path d="M58 190 L262 190 L268 202 L52 202 Z" fill="#E3D9C7" stroke="#2A2025" stroke-width="2.2"/><line x1="56" y1="190" x2="264" y2="190" stroke="#2A2025" stroke-width="2.2"/>
<circle cx="78.0" cy="187" r="3.4" fill="#BD9550" stroke="#5E1622" stroke-width="1"/><path d="M78.0 182 q0 -5 0 -7" stroke="#D9B879" stroke-width="1.4" opacity="0.6"/><circle cx="101.4" cy="187" r="3.4" fill="#BD9550" stroke="#5E1622" stroke-width="1"/><path d="M101.4 182 q0 -5 0 -7" stroke="#D9B879" stroke-width="1.4" opacity="0.6"/><circle cx="124.9" cy="187" r="3.4" fill="#BD9550" stroke="#5E1622" stroke-width="1"/><path d="M124.9 182 q0 -5 0 -7" stroke="#D9B879" stroke-width="1.4" opacity="0.6"/><circle cx="148.3" cy="187" r="3.4" fill="#BD9550" stroke="#5E1622" stroke-width="1"/><path d="M148.3 182 q0 -5 0 -7" stroke="#D9B879" stroke-width="1.4" opacity="0.6"/><circle cx="171.7" cy="187" r="3.4" fill="#BD9550" stroke="#5E1622" stroke-width="1"/><path d="M171.7 182 q0 -5 0 -7" stroke="#D9B879" stroke-width="1.4" opacity="0.6"/><circle cx="195.1" cy="187" r="3.4" fill="#BD9550" stroke="#5E1622" stroke-width="1"/><path d="M195.1 182 q0 -5 0 -7" stroke="#D9B879" stroke-width="1.4" opacity="0.6"/><circle cx="218.6" cy="187" r="3.4" fill="#BD9550" stroke="#5E1622" stroke-width="1"/><path d="M218.6 182 q0 -5 0 -7" stroke="#D9B879" stroke-width="1.4" opacity="0.6"/><circle cx="242.0" cy="187" r="3.4" fill="#BD9550" stroke="#5E1622" stroke-width="1"/><path d="M242.0 182 q0 -5 0 -7" stroke="#D9B879" stroke-width="1.4" opacity="0.6"/>
<g transform="translate(86,108) scale(3.1)"><path d="M5 20 L8.6 14.5 C9.2 8 11 6 12 6 C12.6 6 12.8 6.8 12.5 7.6 C11.8 10 13.4 12.2 16 13 L21 15 C21.6 15.3 21.5 16 20.8 16.2 L9.4 18.6 C8 18.9 6.4 19 5 20 Z" fill="#D9B879" stroke="#5E1622" stroke-width="1.1"/></g>
</svg>