<svg xmlns="http://www.w3.org/2000/svg" viewBox="0 0 360 240" fill="none" stroke-linecap="round" stroke-linejoin="round">
<path d="M170 54 L110 182 A70 13 0 0 0 250 182 L190 54 Z" fill="#D9B879" opacity="0.12"/><ellipse cx="180" cy="182" rx="70" ry="13" fill="#D9B879" opacity="0.18"/>
<path d="M58.0 200 L58.0 80 A122.0 122.0 0 0 1 302.0 80 L302.0 200" stroke="#2A2025" stroke-width="3.6" fill="none" opacity="0.9"/>
<path d="M64.0 44 L64.0 44 Q83.33333333333333 92 102.66666666666666 44 L102.66666666666666 44 Q121.99999999999999 92 141.33333333333331 44 L141.33333333333331 44 Q160.66666666666666 92 179.99999999999997 44 L180.0 44 Q199.33333333333334 92 218.66666666666666 44 L218.66666666666666 44 Q238.0 92 257.3333333333333 44 L257.3333333333333 44 Q276.66666666666663 92 296.0 44 L296.0 44 Z" fill="#7B1E2B" stroke="#5E1622" stroke-width="2.2"/>
<path d="M52 64 L52 190 C66 196 110 196 118 186 C112 154 134 136 114 128 C136 98 54 86 74 64 Z" fill="#7B1E2B" stroke="#5E1622" stroke-width="2.2"/><path d="M71.8 82 C76.8 128 68.8 138 73.8 170" stroke="#5E1622" stroke-width="1.4" opacity="0.55"/><path d="M91.6 82 C96.6 128 88.6 138 93.6 170" stroke="#5E1622" stroke-width="1.4" opacity="0.55"/><rect x="109" y="121" width="14" height="14" rx="6" fill="#BD9550" stroke="#5E1622" stroke-width="1.2"/>
<path d="M308 64 L308 190 C294 196 250 196 242 186 C248 154 226 136 246 128 C224 98 306 86 286 64 Z" fill="#7B1E2B" stroke="#5E1622" stroke-width="2.2"/><path d="M288.2 82 C283.2 128 291.2 138 286.2 170" stroke="#5E1622" stroke-width="1.4" opacity="0.55"/><path d="M268.4 82 C263.4 128 271.4 138 266.4 170" stroke="#5E1622" stroke-width="1.4" opacity="0.55"/><rect x="239" y="121" width="14" height="14" rx="6" fill="#BD9550" stroke="#5E1622" stroke-width="1.2"/>
<path d="M60 194 L300 194 L306 206 L54 206 Z" fill="#E3D9C7" stroke="#2A2025" stroke-width="2.2"/><line x1="58" y1="194" x2="302" y2="194" stroke="#2A2025" stroke-width="2.2"/>
<circle cx="92.0" cy="191" r="3.4" fill="#BD9550" stroke="#5E1622" stroke-width="1"/><path d="M92.0 186 q0 -5 0 -7" stroke="#D9B879" stroke-width="1.4" opacity="0.6"/><circle cx="109.6" cy="191" r="3.4" fill="#BD9550" stroke="#5E1622" stroke-width="1"/><path d="M109.6 186 q0 -5 0 -7" stroke="#D9B879" stroke-width="1.4" opacity="0.6"/><circle cx="127.2" cy="191" r="3.4" fill="#BD9550" stroke="#5E1622" stroke-width="1"/><path d="M127.2 186 q0 -5 0 -7" stroke="#D9B879" stroke-width="1.4" opacity="0.6"/><circle cx="144.8" cy="191" r="3.4" fill="#BD9550" stroke="#5E1622" stroke-width="1"/><path d="M144.8 186 q0 -5 0 -7" stroke="#D9B879" stroke-width="1.4" opacity="0.6"/><circle cx="162.4" cy="191" r="3.4" fill="#BD9550" stroke="#5E1622" stroke-width="1"/><path d="M162.4 186 q0 -5 0 -7" stroke="#D9B879" stroke-width="1.4" opacity="0.6"/><circle cx="180.0" cy="191" r="3.4" fill="#BD9550" stroke="#5E1622" stroke-width="1"/><path d="M180.0 186 q0 -5 0 -7" stroke="#D9B879" stroke-width="1.4" opacity="0.6"/><circle cx="197.6" cy="191" r="3.4" fill="#BD9550" stroke="#5E1622" stroke-width="1"/><path d="M197.6 186 q0 -5 0 -7" stroke="#D9B879" stroke-width="1.4" opacity="0.6"/><circle cx="215.2" cy="191" r="3.4" fill="#BD9550" stroke="#5E1622" stroke-width="1"/><path d="M215.2 186 q0 -5 0 -7" stroke="#D9B879" stroke-width="1.4" opacity="0.6"/><circle cx="232.8" cy="191" r="3.4" fill="#BD9550" stroke="#5E1622" stroke-width="1"/><path d="M232.8 186 q0 -5 0 -7" stroke="#D9B879" stroke-width="1.4" opacity="0.6"/><circle cx="250.4" cy="191" r="3.4" fill="#BD9550" stroke="#5E1622" stroke-width="1"/><path d="M250.4 186 q0 -5 0 -7" stroke="#D9B879" stroke-width="1.4" opacity="0.6"/><circle cx="268.0" cy="191" r="3.4" fill="#BD9550" stroke="#5E1622" stroke-width="1"/><path d="M268.0 186 q0 -5 0 -7" stroke="#D9B879" stroke-width="1.4" opacity="0.6"/>
<path d="M140.0 81.0 L141.2 84.3 L144.8 84.5 L142.0 86.6 L142.9 90.0 L140.0 88.1 L137.1 90.0 L138.0 86.6 L135.2 84.5 L138.8 84.3 Z" fill="#D9B879" stroke="#5E1622" stroke-width="1.4"/>
<path d="M220.0 84.5 L221.4 88.1 L225.2 88.3 L222.2 90.7 L223.2 94.4 L220.0 92.3 L216.8 94.4 L217.8 90.7 L214.8 88.3 L218.6 88.1 Z" fill="#D9B879" stroke="#5E1622" stroke-width="1.4"/>
<path d="M180.0 62.0 L181.5 66.0 L185.7 66.1 L182.4 68.8 L183.5 72.9 L180.0 70.5 L176.5 72.9 L177.6 68.8 L174.3 66.1 L178.5 66.0 Z" fill="#D9B879" stroke="#5E1622" stroke-width="1.4"/>
<path d="M160.0 140.5 L161.9 145.5 L167.1 145.7 L163.0 149.0 L164.4 154.1 L160.0 151.2 L155.6 154.1 L157.0 149.0 L152.9 145.7 L158.1 145.5 Z" fill="#D9B879" stroke="#5E1622" stroke-width="1.4"/>
<path d="M206.0 143.0 L207.2 146.3 L210.8 146.5 L208.0 148.6 L208.9 152.0 L206.0 150.1 L203.1 152.0 L204.0 148.6 L201.2 146.5 L204.8 146.3 Z" fill="#D9B879" stroke="#5E1622" stroke-width="1.4"/>
<path d="M180.0 111.5 L181.1 114.5 L184.3 114.6 L181.8 116.6 L182.6 119.6 L180.0 117.9 L177.4 119.6 L178.2 116.6 L175.7 114.6 L178.9 114.5 Z" fill="#D9B879" stroke="#5E1622" stroke-width="1.4"/>
</svg>